<?xml version="1.0" encoding="UTF-8" standalone="no"?>
<svg
   t="1636450118518"
   class="icon"
   viewBox="0 0 1024 1024"
   version="1.1"
   p-id="13116"
   width="256"
   height="256"
   id="svg5"
   sodipodi:docname="cool.ldr.lfy.svg"
   inkscape:version="1.3 (0e150ed6c4, 2023-07-21)"
   xmlns:inkscape="http://www.inkscape.org/namespaces/inkscape"
   xmlns:sodipodi="http://sodipodi.sourceforge.net/DTD/sodipodi-0.dtd"
   xmlns="http://www.w3.org/2000/svg"
   xmlns:svg="http://www.w3.org/2000/svg">
  <sodipodi:namedview
     id="namedview5"
     pagecolor="#ffffff"
     bordercolor="#000000"
     borderopacity="0.25"
     inkscape:showpageshadow="2"
     inkscape:pageopacity="0.0"
     inkscape:pagecheckerboard="0"
     inkscape:deskcolor="#d1d1d1"
     inkscape:zoom="2.7791905"
     inkscape:cx="68.36523"
     inkscape:cy="125.03641"
     inkscape:window-width="1440"
     inkscape:window-height="835"
     inkscape:window-x="0"
     inkscape:window-y="0"
     inkscape:window-maximized="1"
     inkscape:current-layer="svg5" />
  <defs
     id="defs1">
    <inkscape:path-effect
       effect="fillet_chamfer"
       id="path-effect6"
       is_visible="true"
       lpeversion="1"
       nodesatellites_param="F,0,0,1,0,0,0,1 @ F,0,0,1,0,0,0,1 @ F,0,0,1,0,0,0,1 @ F,0,0,1,0,0,0,1 @ F,0,0,1,0,0,0,1 @ F,0,0,1,0,0,0,1 @ F,0,0,1,0,0,0,1 @ F,0,0,1,0,9.3501736,0,1 @ F,0,0,1,0,24.715554,0,1 @ F,0,0,1,0,0,0,1 @ F,0,0,1,0,0,0,1 @ F,0,0,1,0,0,0,1 @ F,0,0,1,0,0,0,1 @ F,0,0,1,0,0,0,1 @ F,0,0,1,0,0,0,1 @ F,0,0,1,0,0,0,1 @ F,0,0,1,0,0,0,1 @ F,0,0,1,0,0,0,1 @ F,0,0,1,0,0,0,1 @ F,0,0,1,0,0,0,1 @ F,0,0,1,0,0,0,1 @ F,0,0,1,0,0,0,1 @ F,0,0,1,0,0,0,1 @ F,0,0,1,0,15.36167,0,1"
       radius="0"
       unit="px"
       method="auto"
       mode="F"
       chamfer_steps="1"
       flexible="false"
       use_knot_distance="true"
       apply_no_radius="true"
       apply_with_radius="true"
       only_selected="false"
       hide_knots="false" />
    <style
       type="text/css"
       id="style1" />
  </defs>
  <path
     d="M958.136 192h-432.64l-45.03 174.2-16.166 114.484 86.658 241.69 13.914 293.278h393.266c36.368 0 65.864-29.496 65.864-65.864V257.864C1024 221.496 994.504 192 958.136 192z"
     fill="#E6E6E6"
     p-id="13117"
     id="path1" />
  <path
     d="M737.392 832l-172.522 183.652L503.764 832l24.932-66.958z"
     fill="#3A5BBC"
     p-id="13118"
     id="path2" />
  <path
     d="m 939.13,488.348 c 12.40223,-6.306 7.39426,-29.95417 0,-41.74 -9.91834,-15.809 -154.58508,8.55835 -158.608,0 -4.02292,-8.55835 13.77303,-44.66097 0,-58.434 -9.83821,-9.83821 -31.90179,-9.83821 -41.74,0 -13.77303,13.77303 3.19127,50.7442 0,58.434 -3.19127,7.6898 -142.942,0 -142.942,0 v 41.74 c 0,0 223.94197,-4.89403 219.59422,13.82866 -4.34774,18.7227 -28.88471,102.04544 -53.77022,102.24134 -16.57327,0.13046 -46.124,-59.862 -46.336,-60.154 0,0 -5.38784,-15.79763 -12.258,-16.89 -13.74022,-2.18472 -31.59822,10.76995 -33.784,24.51 -1.09278,6.8693 12.254,16.89 12.254,16.89 0.954,1.316 51.48629,56.37438 50.74158,70.40199 C 731.23157,658.95439 672.6,711.586 650.906,733.278 l 29.512,29.512 c 18.724,-18.724 64.6409,-84.049 80.46049,-83.8112 15.2323,0.22897 67.43751,67.5452 98.09951,98.2092 0,0 7.79995,14.75565 14.756,14.756 13.91256,7.1e-4 29.51529,-15.59744 29.516,-29.51 3.5e-4,-6.95605 -14.756,-14.756 -14.756,-14.756 C 856.816,716 790.24618,651.63281 789.2,638.08 c -1.0696,-13.85609 75.46295,-123.39971 81.18295,-136.30971 5.72,-12.91 58.93691,-8.43426 68.74705,-13.42229 z"
     fill="#808080"
     p-id="13119"
     id="path6"
     sodipodi:nodetypes="sszaazcczscaacsccscaasszs" />
  <path
     d="M698.658 715.046L737.392 832H65.864C29.468 832 0 802.504 0 766.136V74.212C0 37.844 29.468 8.348 65.864 8.348h398.832L525.496 192l91.214 275.478 81.948 247.568z"
     fill="#518EF8"
     p-id="13120"
     id="path4" />
  <path
     d="m 222.06669,310.33715 c -32.86152,0 -77.69923,2.27768 -109.12923,2.31495 -18.158576,0.0215 -27.751186,-4.78265 -27.313031,-25.97675 0.369289,-17.86296 2.2596,-46.42801 21.102231,-47.14701 49.72668,-1.89749 140.93686,-0.42189 178.3355,0.30394 29.28239,0.56831 121.62266,-2.3594 147.43409,-2.40615 15.77379,-0.0286 21.14179,15.55766 22.6291,44.31396 0.94887,18.34583 -2.20818,25.2671 -18.63664,27.02769 -26.54292,2.84452 -77.73314,-0.22757 -105.34625,0.35695 -48.57061,1.02817 -15.66075,159.78022 -15.66075,229.32264 0,34.60819 4.35085,49.80691 -37.74662,50.30342 -38.53801,0.45452 -37.98336,-19.59128 -37.38332,-55.51513 1.19448,-71.51244 29.2808,-222.89851 -18.28508,-222.89851 z"
     fill="#ffffff"
     p-id="13121"
     id="path5"
     sodipodi:nodetypes="sssssssssssss"
     style="stroke-width:1.11217" />
</svg>
