<?xml version="1.0" encoding="UTF-8" standalone="no"?>
<svg
   t="1636450118518"
   class="icon"
   version="1.1"
   p-id="13116"
   width="256"
   height="256"
   id="svg5"
   xmlns="http://www.w3.org/2000/svg"
   xmlns:svg="http://www.w3.org/2000/svg">
  <defs
     id="defs1">
    <style
       type="text/css"
       id="style1" />
  </defs>
  <path
     d="M 239.53357,46.67421 H 131.37373 l -11.25746,44.271834 -4.0415,29.095406 21.66446,61.42399 3.47849,74.53477 H 239.534 c 9.09199,0 16.466,-7.49624 16.466,-16.73894 V 63.413126 C 255.99947,54.17043 248.62547,46.67421 239.53357,46.67421 Z"
     fill="#e6e6e6"
     p-id="13117"
     id="path1"
     style="stroke-width:0.252064" />
  <path
     d="m 184.34764,209.3262 -43.13041,46.67401 -15.27647,-46.67401 6.23298,-17.01696 z"
     fill="#3a5bbc"
     p-id="13118"
     id="path2"
     style="stroke-width:0.252064" />
  <path
     d="m 234.78204,121.98919 c 3.10058,-1.60262 1.84854,-7.61266 0,-10.60795 -2.47958,-4.01776 -38.6462,2.17506 -39.65193,0 -1.00573,-2.17505 3.44326,-11.3503 0,-14.85064 -2.45954,-2.50032 -7.97542,-2.50032 -10.43498,0 -3.44325,3.50034 0.79783,12.89632 0,14.85064 -0.79781,1.95431 -35.73543,0 -35.73543,0 v 10.60795 c 0,0 55.98539,-1.24378 54.89845,3.51448 -1.08693,4.75825 -7.22115,25.9342 -13.44252,25.98399 -4.14332,0.0331 -11.53097,-15.21356 -11.58398,-15.28777 0,0 -1.34696,-4.01486 -3.06449,-4.29248 -3.43507,-0.55523 -7.89954,2.73711 -8.44598,6.22906 -0.2732,1.74579 3.06348,4.29249 3.06348,4.29249 0.23851,0.33446 12.87155,14.32719 12.68537,17.89223 -0.26249,5.02656 -14.92036,18.40253 -20.34385,23.91544 l 7.37799,7.50028 c 4.68098,-4.75859 16.16019,-21.36052 20.11508,-21.30009 3.80807,0.0581 16.85935,17.16619 24.52483,24.95926 0,0 1.94998,3.75004 3.689,3.75014 3.47813,1.8e-4 7.3788,-3.96399 7.37897,-7.49978 9e-5,-1.76783 -3.68899,-3.75015 -3.68899,-3.75015 -7.91948,-8.05076 -24.56191,-24.40928 -24.82345,-27.85364 -0.26741,-3.52144 18.8657,-31.36126 20.29569,-34.64226 1.43001,-3.281 14.73421,-2.14352 17.18674,-3.4112 z"
     fill="#808080"
     p-id="13119"
     id="path6"
     style="stroke-width:0.252064" />
  <path
     d="m 174.66417,179.60308 9.68347,29.72312 H 16.46597 C 7.3669894,209.3262 0,201.82997 0,192.58728 V 16.739122 C 0,7.496426 7.3669894,2.063e-4 16.46597,2.063e-4 h 99.7078 l 15.19996,46.6740037 22.80346,70.011 z"
     fill="#518ef8"
     p-id="13120"
     id="path4"
     style="stroke-width:0.252064" />
  <path
     d="m 55.516568,76.74886 c -8.215364,0 -19.424775,0.578847 -27.282258,0.588318 -4.539633,0.0048 -6.937782,-1.215475 -6.828245,-6.601819 0.09232,-4.53976 0.564903,-11.799394 5.275552,-11.982124 12.431643,-0.48223 35.234143,-0.107219 44.583784,0.07729 7.320586,0.144435 30.405609,-0.59963 36.858459,-0.61151 3.94344,-0.0071 5.28543,3.953883 5.65725,11.262113 0.23722,4.662474 -0.55205,6.421471 -4.65915,6.868916 -6.63571,0.722911 -19.433247,-0.05778 -26.336512,0.09074 -12.142622,0.26131 -3.915176,40.607166 -3.915176,58.280916 0,8.79545 1.087711,12.65812 -9.436633,12.7843 -9.63448,0.11551 -9.495823,-4.97899 -9.345807,-14.10882 0.298608,-18.17444 7.320184,-56.64826 -4.571264,-56.64826 z"
     fill="#ffffff"
     p-id="13121"
     id="path5"
     style="stroke-width:0.280338" />
</svg>
