<?xml version="1.0" encoding="UTF-8" standalone="no"?>
<!-- Created with Inkscape (http://www.inkscape.org/) -->

<svg
   width="16"
   height="16"
   viewBox="0 0 16 16"
   version="1.1"
   id="svg1"
   inkscape:version="1.3.1 (91b66b0783, 2023-11-16, custom)"
   sodipodi:docname="绘图.svg"
   xmlns:inkscape="http://www.inkscape.org/namespaces/inkscape"
   xmlns:sodipodi="http://sodipodi.sourceforge.net/DTD/sodipodi-0.dtd"
   xmlns="http://www.w3.org/2000/svg"
   xmlns:svg="http://www.w3.org/2000/svg">
  <sodipodi:namedview
     id="namedview1"
     pagecolor="#ffffff"
     bordercolor="#000000"
     borderopacity="0.25"
     inkscape:showpageshadow="2"
     inkscape:pageopacity="0.0"
     inkscape:pagecheckerboard="0"
     inkscape:deskcolor="#d1d1d1"
     inkscape:document-units="px"
     inkscape:zoom="14.767822"
     inkscape:cx="6.6360496"
     inkscape:cy="8.4304916"
     inkscape:window-width="1280"
     inkscape:window-height="683"
     inkscape:window-x="0"
     inkscape:window-y="0"
     inkscape:window-maximized="1"
     inkscape:current-layer="layer1" />
  <defs
     id="defs1" />
  <g
     inkscape:label="图层 1"
     inkscape:groupmode="layer"
     id="layer1">
    <path
       d="M 14.970848,2.9171252 H 8.2108581 L 7.5072669,5.6841149 7.2546731,7.5025777 8.6087019,11.341577 8.8261075,16.000001 H 14.970875 C 15.539124,16.000001 16,15.531486 16,14.953817 V 3.9633075 C 15.999967,3.385639 15.539092,2.9171252 14.970848,2.9171252 Z"
       fill="#e6e6e6"
       p-id="13117"
       id="path1"
       style="stroke-width:0.015754" />
    <path
       d="M 11.521728,13.082875 8.8260769,16.000001 7.8712975,13.082875 8.2608588,12.019315 Z"
       fill="#3a5bbc"
       p-id="13118"
       id="path2"
       style="stroke-width:0.015754;fill:#5c5c5c;fill-opacity:1" />
    <path
       d="m 14.673878,7.6243115 c 0.193786,-0.1001638 0.115533,-0.4757913 0,-0.6629969 -0.154974,-0.25111 -2.415388,0.1359413 -2.478246,0 -0.06286,-0.1359406 0.215204,-0.7093937 0,-0.928165 -0.153721,-0.15627 -0.498464,-0.15627 -0.652186,0 -0.215203,0.2187713 0.04986,0.80602 0,0.928165 -0.04986,0.1221444 -2.2334647,0 -2.2334647,0 v 0.6629969 c 0,0 3.4990867,-0.077736 3.4311527,0.219655 -0.06793,0.2973906 -0.451321,1.6208875 -0.840157,1.6239994 -0.258958,0.00207 -0.720686,-0.9508475 -0.723999,-0.9554857 0,0 -0.08418,-0.2509287 -0.191531,-0.26828 -0.214691,-0.034702 -0.493721,0.1710694 -0.527873,0.3893163 -0.01707,0.1091119 0.191467,0.2682806 0.191467,0.2682806 0.01491,0.020904 0.804472,0.8954494 0.792836,1.1182649 -0.01641,0.31416 -0.932523,1.150158 -1.271491,1.494715 l 0.461125,0.468767 c 0.292561,-0.297412 1.010012,-1.335032 1.257192,-1.331255 0.238005,0.0036 1.05371,1.072887 1.532802,1.559953 0,0 0.121874,0.234378 0.230563,0.234384 0.217383,1.1e-5 0.461175,-0.247749 0.461185,-0.468736 6e-6,-0.110489 -0.230562,-0.234384 -0.230562,-0.234384 -0.494967,-0.503173 -1.535119,-1.52558 -1.551465,-1.740853 -0.01671,-0.2200903 1.179106,-1.960079 1.26848,-2.1651415 0.08938,-0.2050625 0.920888,-0.13397 1.074172,-0.2132 z"
       fill="#808080"
       p-id="13119"
       id="path6"
       style="stroke-width:0.015754" />
    <path
       d="m 10.916511,11.22518 0.605217,1.857695 H 1.0291231 C 0.46043684,13.082875 0,12.614361 0,12.036692 V 1.0461822 C 0,0.46851373 0.46043684,0 1.0291231,0 h 6.2317375 l 0.9499975,2.9171252 1.4252163,4.3756875 z"
       fill="#518ef8"
       p-id="13120"
       id="path4"
       style="stroke-width:0.015754;fill:#808080;fill-opacity:1" />
    <path
       d="m 3.4697855,4.7967909 c -0.5134603,0 -1.2140484,0.036178 -1.7051411,0.03677 -0.2837271,3e-4 -0.4336114,-0.075967 -0.4267653,-0.4126137 0.00577,-0.283735 0.035306,-0.7374621 0.329722,-0.7488827 0.7769777,-0.030139 2.2021339,-0.0067 2.7864865,0.00483 0.4575366,0.00903 1.9003505,-0.037477 2.3036537,-0.038219 0.2464649,-4.437e-4 0.3303393,0.2471177 0.3535781,0.7038821 0.014826,0.2914046 -0.034503,0.4013419 -0.2911969,0.4293073 -0.4147319,0.045182 -1.2145779,-0.00361 -1.646032,0.00567 -0.7589139,0.016332 -0.2446985,2.5379479 -0.2446985,3.6425573 0,0.5497156 0.067982,0.7911325 -0.5897896,0.7990187 -0.602155,0.00722 -0.5934889,-0.3111857 -0.5841129,-0.8818 C 3.7741525,7.2014084 4.213001,4.7967946 3.4697855,4.7967946 Z"
       fill="#ffffff"
       p-id="13121"
       id="path5"
       style="stroke-width:0.0175211" />
  </g>
</svg>
